<?xml version="1.0" encoding="utf-8"?>
<!-- Generator: Adobe Illustrator 22.1.0, SVG Export Plug-In . SVG Version: 6.00 Build 0)  -->
<svg version="1.1" id="Layer_1" xmlns="http://www.w3.org/2000/svg" xmlns:xlink="http://www.w3.org/1999/xlink" x="0px" y="0px"
	 viewBox="0 0 156 156" enable-background="new 0 0 156 156" xml:space="preserve">
<title>Group Copy</title>
<desc>Created with Sketch.</desc>
<g id="Page-1">
	<g id="Group-Copy">
		<g id="Group-2">
			<path id="Combined-Shape" opacity="0.5" fill="#08B5D1" enable-background="new    " d="M104,78L104,78L104,78L104,78L104,78z
				 M104,78L104,78l-52,77.7L0,78h0l0,0l0,0h0L52,0.3l26,38.8L52,0.3h104L104,78l52,77.7H52L104,78z"/>
			<polygon id="Combined-Shape-Copy-4" fill="#007FE1" points="52,155.7 104,78 0,78 			"/>
			<polygon id="Combined-Shape-Copy-3" fill="#007FE1" points="52,0.3 0,78 104,78 			"/>
			<path id="Combined-Shape_1_" fill="#08B5D1" d="M0,78l52,77.7L104,78h0l0,0l0,0h0L52,0.3L0,78L0,78L0,78L0,78L0,78z"/>
		</g>
		<path id="C-A-T-A-L-Y-S-T" fill="#08B5D1" d="M236.1,105c4.5,0,8.3-0.8,11.6-2.3c3.2-1.5,6.6-3.9,10.1-7.2l8.4,8.6
			c-8.1,9-18,13.5-29.7,13.5s-21.3-3.7-28.9-11.2C199.8,99,196,89.5,196,78.1s3.9-21,11.7-28.6S225.4,38,237.3,38
			s21.9,4.4,29.9,13.2l-8.3,9c-3.7-3.5-7.1-6-10.4-7.4c-3.3-1.4-7.1-2.1-11.5-2.1c-7.8,0-14.3,2.5-19.6,7.5
			c-5.3,5-7.9,11.4-7.9,19.3s2.6,14.3,7.9,19.6C222.6,102.4,228.9,105,236.1,105z M323,99.3l-7.7,17.5h-13.9l33.9-76.9h13.9
			l33.9,76.9h-13.9l-7.7-17.5H323z M356.2,87.3l-14-31.7l-14,31.7H356.2z M452.9,51.8v65h-13v-65h-23.3V39.9h59.6v11.9H452.9z
			 M531.4,99.3l-7.7,17.5h-13.9l33.9-76.9h13.9l33.9,76.9h-13.9l-7.7-17.5H531.4z M564.6,87.3l-14-31.7l-14,31.7H564.6z
			 M632.3,116.8V39.9h13v64.6h35.1v12.3H632.3z M755,116.8h-13.2V86.4l-28.6-46.5h14.2l21,35l21-35h14.2L755,86.4V116.8z
			 M837.5,52.3c-2.4,1.5-3.6,3.9-3.6,7c0,3.1,1.2,5.5,3.6,7.2s7.6,3.4,15.5,5.3c7.9,1.9,13.8,4.6,17.8,8c4,3.4,6,8.5,6,15.2
			s-2.5,12.2-7.6,16.3c-5.1,4.2-11.7,6.3-19.9,6.3c-12,0-22.7-4.1-32-12.4l8.1-9.8c7.8,6.7,15.8,10.1,24.2,10.1
			c4.2,0,7.5-0.9,10-2.7s3.7-4.2,3.7-7.2s-1.2-5.3-3.5-6.9c-2.3-1.7-6.3-3.2-11.9-4.5c-5.6-1.4-9.9-2.6-12.9-3.7
			c-2.9-1.1-5.5-2.6-7.8-4.5c-4.5-3.4-6.8-8.7-6.8-15.8s2.6-12.6,7.8-16.5s11.6-5.8,19.2-5.8c4.9,0,9.8,0.8,14.6,2.4
			c4.8,1.6,9,3.9,12.5,6.8l-6.9,9.8c-2.3-2.1-5.4-3.7-9.2-5.1c-3.9-1.3-7.7-2-11.5-2S839.9,50.8,837.5,52.3z M952.1,51.8v65h-13v-65
			h-23.3V39.9h59.6v11.9H952.1z"/>
	</g>
</g>
</svg>
